<mxfile host="65bd71144e">
    <diagram id="WFMywcP9sZ5kdwYP4R4Z" name="Page-1">
        <mxGraphModel dx="1200" dy="1058" grid="1" gridSize="10" guides="1" tooltips="1" connect="1" arrows="1" fold="1" page="1" pageScale="1" pageWidth="850" pageHeight="1100" math="0" shadow="0">
            <root>
                <mxCell id="0"/>
                <mxCell id="1" parent="0"/>
                <mxCell id="2" value="login.py&lt;br&gt;Ask for username&lt;br&gt;Ask for password&lt;br&gt;&lt;br&gt;Query DB with given info:&lt;br&gt;&quot;SELECT id, password, is_admin from Users where username = ?" style="rounded=1;whiteSpace=wrap;html=1;" vertex="1" parent="1">
                    <mxGeometry x="120" y="40" width="490" height="100" as="geometry"/>
                </mxCell>
                <mxCell id="7" style="edgeStyle=none;html=1;exitX=0.25;exitY=1;exitDx=0;exitDy=0;" edge="1" parent="1" source="2" target="4">
                    <mxGeometry relative="1" as="geometry">
                        <mxPoint x="335" y="240" as="sourcePoint"/>
                    </mxGeometry>
                </mxCell>
                <mxCell id="9" value="if is_admin == False" style="edgeLabel;html=1;align=center;verticalAlign=middle;resizable=0;points=[];" vertex="1" connectable="0" parent="7">
                    <mxGeometry x="-0.0916" y="-2" relative="1" as="geometry">
                        <mxPoint as="offset"/>
                    </mxGeometry>
                </mxCell>
                <mxCell id="8" style="edgeStyle=none;html=1;exitX=0.75;exitY=1;exitDx=0;exitDy=0;entryX=0.25;entryY=0;entryDx=0;entryDy=0;" edge="1" parent="1" source="2" target="5">
                    <mxGeometry relative="1" as="geometry">
                        <mxPoint x="395" y="240" as="sourcePoint"/>
                    </mxGeometry>
                </mxCell>
                <mxCell id="10" value="if is_admin == True" style="edgeLabel;html=1;align=center;verticalAlign=middle;resizable=0;points=[];" vertex="1" connectable="0" parent="8">
                    <mxGeometry x="-0.123" y="1" relative="1" as="geometry">
                        <mxPoint x="-1" as="offset"/>
                    </mxGeometry>
                </mxCell>
                <mxCell id="4" value="User Menu:&lt;br&gt;&lt;br&gt;View Personal Data&lt;br&gt;Change Personal Data" style="rounded=1;whiteSpace=wrap;html=1;" vertex="1" parent="1">
                    <mxGeometry x="110" y="300" width="160" height="130" as="geometry"/>
                </mxCell>
                <mxCell id="5" value="Admin Menu:&lt;br&gt;&lt;br&gt;CRUDDA Users&lt;br&gt;CRUDDA Assesments&lt;br&gt;CRUDDA Competencies&lt;br&gt;CRUDDA Results&lt;br&gt;Import/Export CSV" style="rounded=1;whiteSpace=wrap;html=1;" vertex="1" parent="1">
                    <mxGeometry x="510" y="300" width="150" height="160" as="geometry"/>
                </mxCell>
            </root>
        </mxGraphModel>
    </diagram>
</mxfile>